# xmcd
#
# Track frame offsets:
#	150
#	5350
#	17040
#	21870
#	31340
#	34085
#	42258
#	46855
#	58628
#	61163
#	70008
#	72065
#	83660
#	96020
#	104518
#	106603
#	111818
#	122325
#
# Disc length: 1775 seconds
#
# Revision: 1
# Processed by: cddbd v1.5.2PL0 Copyright (c) Steve Scherf et al.
# Submitted via: audiograbber 1.83.01
#
DISCID=d406ed12
DTITLE=Country Bumpkins - The Country Bumpkins
DYEAR=1995
DGENRE=Country
TTITLE0=Intro
TTITLE1=Hog Tied
TTITLE2=Roy and Bucky
TTITLE3=LSD
TTITLE4=Mimsy and Roy
TTITLE5=18 Wheels
TTITLE6=Roy and Bucky (2)
TTITLE7=Mental Cruelty
TTITLE8=Roy, Bucky and Mrs. Sludge
TTITLE9=Cheated
TTITLE10=Roy and Bucky (3)
TTITLE11=The Bull and The Beaver
TTITLE12=Roy and Th' Reakin' Deacon
TTITLE13=Mercy Me
TTITLE14=Lem 'n Clem
TTITLE15=Roy and Bucky (4)
TTITLE16=Po White Trash
TTITLE17=Outro
EXTD=
EXTT0=
EXTT1=
EXTT2=
EXTT3=
EXTT4=
EXTT5=
EXTT6=
EXTT7=
EXTT8=
EXTT9=
EXTT10=
EXTT11=
EXTT12=
EXTT13=
EXTT14=
EXTT15=
EXTT16=
EXTT17=
PLAYORDER=
